<svg width="71" height="19" viewBox="0 0 71 19" fill="none" xmlns="http://www.w3.org/2000/svg">
<path d="M-1.71671e-07 8.53631C-5.57929e-07 4.11804 3.58172 0.536315 8 0.536315C12.4183 0.536314 16 4.11804 16 8.53631C16 12.9546 12.9183 8.53632 8.5 8.53632C4.08172 8.53632 2.14587e-07 12.9546 -1.71671e-07 8.53631Z" fill="white"/>
<path d="M16 10.4637C16 14.882 12.4183 18.4637 8 18.4637C3.58172 18.4637 0 14.882 0 10.4637C0 6.04541 3.08172 10.4637 7.5 10.4637C11.9183 10.4637 16 6.04541 16 10.4637Z" fill="#0F54FF"/>
<path d="M29.852 9.18182C29.852 10.4508 29.6115 11.5303 29.1305 12.4205C28.6532 13.3106 28.0017 13.9905 27.1759 14.4602C26.3539 14.9261 25.4297 15.1591 24.4032 15.1591C23.3691 15.1591 22.4411 14.9242 21.6191 14.4545C20.7971 13.9848 20.1475 13.3049 19.6702 12.4148C19.193 11.5246 18.9543 10.447 18.9543 9.18182C18.9543 7.91288 19.193 6.83333 19.6702 5.94318C20.1475 5.05303 20.7971 4.375 21.6191 3.90909C22.4411 3.43939 23.3691 3.20455 24.4032 3.20455C25.4297 3.20455 26.3539 3.43939 27.1759 3.90909C28.0017 4.375 28.6532 5.05303 29.1305 5.94318C29.6115 6.83333 29.852 7.91288 29.852 9.18182ZM27.3577 9.18182C27.3577 8.35985 27.2346 7.66667 26.9884 7.10227C26.746 6.53788 26.4032 6.10985 25.96 5.81818C25.5168 5.52652 24.9979 5.38068 24.4032 5.38068C23.8085 5.38068 23.2895 5.52652 22.8464 5.81818C22.4032 6.10985 22.0585 6.53788 21.8123 7.10227C21.5698 7.66667 21.4486 8.35985 21.4486 9.18182C21.4486 10.0038 21.5698 10.697 21.8123 11.2614C22.0585 11.8258 22.4032 12.2538 22.8464 12.5455C23.2895 12.8371 23.8085 12.983 24.4032 12.983C24.9979 12.983 25.5168 12.8371 25.96 12.5455C26.4032 12.2538 26.746 11.8258 26.9884 11.2614C27.2346 10.697 27.3577 10.0038 27.3577 9.18182ZM30.989 15V6.27273H33.2959V7.8125H33.3981C33.5799 7.30114 33.883 6.89773 34.3072 6.60227C34.7315 6.30682 35.239 6.15909 35.8299 6.15909C36.4284 6.15909 36.9379 6.30871 37.3584 6.60795C37.7788 6.90341 38.0591 7.30492 38.1993 7.8125H38.2902C38.4682 7.3125 38.7902 6.91288 39.2561 6.61364C39.7258 6.31061 40.2807 6.15909 40.9209 6.15909C41.7352 6.15909 42.3962 6.41856 42.9038 6.9375C43.4152 7.45265 43.6709 8.18371 43.6709 9.13068V15H41.2561V9.60795C41.2561 9.12311 41.1273 8.75947 40.8697 8.51705C40.6121 8.27462 40.2902 8.15341 39.9038 8.15341C39.4644 8.15341 39.1216 8.29356 38.8754 8.57386C38.6292 8.85038 38.5061 9.21591 38.5061 9.67045V15H36.1595V9.55682C36.1595 9.12879 36.0364 8.78788 35.7902 8.53409C35.5477 8.2803 35.2277 8.15341 34.8299 8.15341C34.561 8.15341 34.3186 8.22159 34.1027 8.35795C33.8905 8.49053 33.722 8.67803 33.597 8.92045C33.472 9.15909 33.4095 9.43939 33.4095 9.76136V15H30.989ZM47.3632 9.95455V15H44.9428V6.27273H47.2496V7.8125H47.3519C47.5451 7.30492 47.8689 6.90341 48.3235 6.60795C48.778 6.30871 49.3291 6.15909 49.9769 6.15909C50.5829 6.15909 51.1113 6.29167 51.5621 6.55682C52.0129 6.82197 52.3632 7.20076 52.6132 7.69318C52.8632 8.18182 52.9882 8.76515 52.9882 9.44318V15H50.5678V9.875C50.5716 9.34091 50.4352 8.92424 50.1587 8.625C49.8822 8.32197 49.5015 8.17045 49.0166 8.17045C48.6909 8.17045 48.403 8.24053 48.153 8.38068C47.9068 8.52083 47.7136 8.72538 47.5735 8.99432C47.4371 9.25947 47.367 9.57955 47.3632 9.95455ZM58.2332 15.1705C57.3355 15.1705 56.5627 14.9886 55.915 14.625C55.2711 14.2576 54.7748 13.7386 54.4264 13.0682C54.0779 12.3939 53.9036 11.5966 53.9036 10.6761C53.9036 9.77841 54.0779 8.99053 54.4264 8.3125C54.7748 7.63447 55.2654 7.10606 55.898 6.72727C56.5343 6.34848 57.2805 6.15909 58.1366 6.15909C58.7123 6.15909 59.2483 6.25189 59.7445 6.4375C60.2445 6.61932 60.6802 6.89394 61.0514 7.26136C61.4264 7.62879 61.718 8.09091 61.9264 8.64773C62.1347 9.20076 62.2389 9.84848 62.2389 10.5909V11.2557H54.8695V9.75568H59.9605C59.9605 9.4072 59.8847 9.09848 59.7332 8.82955C59.5817 8.56061 59.3714 8.35038 59.1025 8.19886C58.8373 8.04356 58.5286 7.96591 58.1764 7.96591C57.8089 7.96591 57.4832 8.05114 57.1991 8.22159C56.9188 8.38826 56.6991 8.61364 56.54 8.89773C56.3809 9.17803 56.2995 9.49053 56.2957 9.83523V11.2614C56.2957 11.6932 56.3752 12.0663 56.5343 12.3807C56.6972 12.6951 56.9264 12.9375 57.2218 13.108C57.5173 13.2784 57.8677 13.3636 58.273 13.3636C58.5419 13.3636 58.7881 13.3258 59.0116 13.25C59.2351 13.1742 59.4264 13.0606 59.5855 12.9091C59.7445 12.7576 59.8658 12.572 59.9491 12.3523L62.1877 12.5C62.0741 13.0379 61.8411 13.5076 61.4889 13.9091C61.1404 14.3068 60.6896 14.6174 60.1366 14.8409C59.5873 15.0606 58.9529 15.1705 58.2332 15.1705Z" fill="white"/>
<path d="M65.8381 15.1705C66.7358 15.1705 67.5085 14.9886 68.1562 14.625C68.8002 14.2576 69.2964 13.7386 69.6449 13.0682C69.9934 12.3939 70.1676 11.5966 70.1676 10.6761C70.1676 9.77841 69.9934 8.99053 69.6449 8.3125C69.2964 7.63447 68.8059 7.10606 68.1733 6.72727C67.5369 6.34848 66.7907 6.15909 65.9347 6.15909C65.3589 6.15909 64.8229 6.25189 64.3267 6.4375C63.8267 6.61932 63.3911 6.89394 63.0199 7.26136C62.6449 7.62879 62.3532 8.09091 62.1449 8.64773C61.9366 9.20076 61.8324 9.84848 61.8324 10.5909V11.2557H69.2017V9.75568H64.1108C64.1108 9.4072 64.1866 9.09848 64.3381 8.82955C64.4896 8.56061 64.6998 8.35038 64.9688 8.19886C65.2339 8.04356 65.5426 7.96591 65.8949 7.96591C66.2623 7.96591 66.5881 8.05114 66.8722 8.22159C67.1525 8.38826 67.3722 8.61364 67.5312 8.89773C67.6903 9.17803 67.7718 9.49053 67.7756 9.83523V11.2614C67.7756 11.6932 67.696 12.0663 67.5369 12.3807C67.3741 12.6951 67.1449 12.9375 66.8494 13.108C66.554 13.2784 66.2036 13.3636 65.7983 13.3636C65.5294 13.3636 65.2831 13.3258 65.0597 13.25C64.8362 13.1742 64.6449 13.0606 64.4858 12.9091C64.3267 12.7576 64.2055 12.572 64.1222 12.3523L61.8835 12.5C61.9972 13.0379 62.2301 13.5076 62.5824 13.9091C62.9309 14.3068 63.3816 14.6174 63.9347 14.8409C64.4839 15.0606 65.1184 15.1705 65.8381 15.1705Z" fill="white"/>
</svg>
